{
  "accessors": [
    {
      "bufferView": 2,
      "componentType": 5126,
      "count": 1673,
      "max": [
        3.4050230979919434,
        170.54428100585938,
        12.74173641204834
      ],
      "min": [
        -3.4104301929473877,
        167.11167907714844,
        9.848038673400879
      ],
      "type": "VEC3"
    },
    {
      "bufferView": 2,
      "byteOffset": 20076,
      "componentType": 5126,
      "count": 1673,
      "max": [
        0.9961007833480835,
        0.998362123966217,
        0.9997255802154541
      ],
      "min": [
        -0.998234748840332,
        -0.9989423751831055,
        -1.0
      ],
      "type": "VEC3"
    },
    {
      "bufferView": 3,
      "componentType": 5126,
      "count": 1673,
      "max": [
        0.9989520311355591,
        0.9994116425514221,
        0.9999609589576721,
        1.0
      ],
      "min": [
        -0.9993143677711487,
        -0.9994128942489624,
        -0.9996866583824158,
        -1.0
      ],
      "type": "VEC4"
    },
    {
      "bufferView": 1,
      "componentType": 5126,
      "count": 1673,
      "max": [
        0.36288100481033325,
        0.9900000095367432
      ],
      "min": [
        0.009999999776482582,
        0.6371189951896667
      ],
      "type": "VEC2"
    },
    {
      "bufferView": 1,
      "byteOffset": 13384,
      "componentType": 5126,
      "count": 1673,
      "max": [
        0.36288100481033325,
        0.9900000095367432
      ],
      "min": [
        0.009999999776482582,
        0.6371189951896667
      ],
      "type": "VEC2"
    },
    {
      "bufferView": 1,
      "byteOffset": 26768,
      "componentType": 5126,
      "count": 1673,
      "max": [
        0.36288100481033325,
        0.9900000095367432
      ],
      "min": [
        0.009999999776482582,
        0.6371189951896667
      ],
      "type": "VEC2"
    },
    {
      "bufferView": 0,
      "componentType": 5125,
      "count": 6849,
      "type": "SCALAR"
    },
    {
      "bufferView": 2,
      "byteOffset": 40152,
      "componentType": 5126,
      "count": 17884,
      "max": [
        69.66740417480469,
        188.99868774414063,
        24.055673599243164
      ],
      "min": [
        -69.66645812988281,
        0.0005070000188425183,
        -16.36495018005371
      ],
      "type": "VEC3"
    },
    {
      "bufferView": 2,
      "byteOffset": 254760,
      "componentType": 5126,
      "count": 17884,
      "max": [
        0.999988853931427,
        0.999923050403595,
        0.999909520149231
      ],
      "min": [
        -0.9999911785125732,
        -0.9999969005584717,
        -0.999649167060852
      ],
      "type": "VEC3"
    },
    {
      "bufferView": 3,
      "byteOffset": 26768,
      "componentType": 5126,
      "count": 17884,
      "max": [
        0.9997292757034302,
        0.9999942779541016,
        0.9999025464057922,
        1.0
      ],
      "min": [
        -0.9999282956123352,
        -0.9999873042106628,
        -0.9999203681945801,
        -1.0
      ],
      "type": "VEC4"
    },
    {
      "bufferView": 1,
      "byteOffset": 40152,
      "componentType": 5126,
      "count": 17884,
      "max": [
        0.9879840016365051,
        0.9900000095367432
      ],
      "min": [
        0.009999999776482582,
        0.009999999776482582
      ],
      "type": "VEC2"
    },
    {
      "bufferView": 1,
      "byteOffset": 183224,
      "componentType": 5126,
      "count": 17884,
      "max": [
        0.9879840016365051,
        0.9900000095367432
      ],
      "min": [
        0.009999999776482582,
        0.009999999776482582
      ],
      "type": "VEC2"
    },
    {
      "bufferView": 1,
      "byteOffset": 326296,
      "componentType": 5126,
      "count": 17884,
      "max": [
        0.9879840016365051,
        0.9900000095367432
      ],
      "min": [
        0.009999999776482582,
        0.009999999776482582
      ],
      "type": "VEC2"
    },
    {
      "bufferView": 0,
      "byteOffset": 27396,
      "componentType": 5125,
      "count": 98790,
      "type": "SCALAR"
    },
    {
      "bufferView": 2,
      "byteOffset": 469368,
      "componentType": 5126,
      "count": 1156,
      "max": [
        6.054957866668701,
        179.65576171875,
        11.062527656555176
      ],
      "min": [
        -6.054957866668701,
        174.57766723632813,
        5.9844841957092285
      ],
      "type": "VEC3"
    },
    {
      "bufferView": 2,
      "byteOffset": 483240,
      "componentType": 5126,
      "count": 1156,
      "max": [
        1.0,
        1.0,
        1.0
      ],
      "min": [
        -1.0,
        -1.0,
        -1.0
      ],
      "type": "VEC3"
    },
    {
      "bufferView": 3,
      "byteOffset": 312912,
      "componentType": 5126,
      "count": 1156,
      "max": [
        0.998877227306366,
        0.3664422929286957,
        0.9999009370803833,
        1.0
      ],
      "min": [
        -0.4576103389263153,
        -0.9974357485771179,
        -0.9998968839645386,
        1.0
      ],
      "type": "VEC4"
    },
    {
      "bufferView": 1,
      "byteOffset": 469368,
      "componentType": 5126,
      "count": 1156,
      "max": [
        0.5383129715919495,
        0.9900000095367432
      ],
      "min": [
        0.03792399913072586,
        0.4758020043373108
      ],
      "type": "VEC2"
    },
    {
      "bufferView": 1,
      "byteOffset": 478616,
      "componentType": 5126,
      "count": 1156,
      "max": [
        0.5383129715919495,
        0.9900000095367432
      ],
      "min": [
        0.03792399913072586,
        0.4758020043373108
      ],
      "type": "VEC2"
    },
    {
      "bufferView": 1,
      "byteOffset": 487864,
      "componentType": 5126,
      "count": 1156,
      "max": [
        0.5383129715919495,
        0.9900000095367432
      ],
      "min": [
        0.03792399913072586,
        0.4758020043373108
      ],
      "type": "VEC2"
    },
    {
      "bufferView": 0,
      "byteOffset": 422556,
      "componentType": 5125,
      "count": 6528,
      "type": "SCALAR"
    }
  ],
  "asset": {
    "extras": {
      "author": "owestgate (https://sketchfab.com/owestgate)",
      "license": "CC-BY-4.0 (http://creativecommons.org/licenses/by/4.0/)",
      "source": "https://sketchfab.com/3d-models/zombie-e592081cd18048a6a42a40e4f41bdd29",
      "title": "Zombie"
    },
    "generator": "Sketchfab-12.67.0",
    "version": "2.0"
  },
  "bufferViews": [
    {
      "buffer": 0,
      "byteLength": 448668,
      "name": "floatBufferViews",
      "target": 34963
    },
    {
      "buffer": 0,
      "byteLength": 497112,
      "byteOffset": 448668,
      "byteStride": 8,
      "name": "floatBufferViews",
      "target": 34962
    },
    {
      "buffer": 0,
      "byteLength": 497112,
      "byteOffset": 945780,
      "byteStride": 12,
      "name": "floatBufferViews",
      "target": 34962
    },
    {
      "buffer": 0,
      "byteLength": 331408,
      "byteOffset": 1442892,
      "byteStride": 16,
      "name": "floatBufferViews",
      "target": 34962
    }
  ],
  "buffers": [
    {
      "byteLength": 1774300,
      "uri": "scene.bin"
    }
  ],
  "images": [
    {
      "uri": "textures/Default_baseColor.png"
    },
    {
      "uri": "textures/Default_metallicRoughness.png"
    },
    {
      "uri": "textures/Default_emissive.png"
    },
    {
      "uri": "textures/Default_normal.png"
    }
  ],
  "materials": [
    {
      "doubleSided": true,
      "emissiveFactor": [
        1.0,
        1.0,
        1.0
      ],
      "emissiveTexture": {
        "index": 2
      },
      "name": "Default",
      "normalTexture": {
        "index": 3
      },
      "occlusionTexture": {
        "index": 1
      },
      "pbrMetallicRoughness": {
        "baseColorTexture": {
          "index": 0
        },
        "metallicRoughnessTexture": {
          "index": 1
        }
      }
    }
  ],
  "meshes": [
    {
      "name": "RetopoGroup1_Default_0",
      "primitives": [
        {
          "attributes": {
            "NORMAL": 1,
            "POSITION": 0,
            "TANGENT": 2,
            "TEXCOORD_0": 3,
            "TEXCOORD_1": 4,
            "TEXCOORD_2": 5
          },
          "indices": 6,
          "material": 0,
          "mode": 4
        }
      ]
    },
    {
      "name": "Body_Default_0",
      "primitives": [
        {
          "attributes": {
            "NORMAL": 8,
            "POSITION": 7,
            "TANGENT": 9,
            "TEXCOORD_0": 10,
            "TEXCOORD_1": 11,
            "TEXCOORD_2": 12
          },
          "indices": 13,
          "material": 0,
          "mode": 4
        }
      ]
    },
    {
      "name": "Sphere_Default_0",
      "primitives": [
        {
          "attributes": {
            "NORMAL": 15,
            "POSITION": 14,
            "TANGENT": 16,
            "TEXCOORD_0": 17,
            "TEXCOORD_1": 18,
            "TEXCOORD_2": 19
          },
          "indices": 20,
          "material": 0,
          "mode": 4
        }
      ]
    }
  ],
  "nodes": [
    {
      "children": [
        1
      ],
      "matrix": [
        1.0,
        0.0,
        0.0,
        0.0,
        0.0,
        2.220446049250313e-16,
        -1.0,
        0.0,
        0.0,
        1.0,
        2.220446049250313e-16,
        0.0,
        0.0,
        0.0,
        0.0,
        1.0
      ],
      "name": "Sketchfab_model"
    },
    {
      "children": [
        2
      ],
      "matrix": [
        1.0,
        0.0,
        0.0,
        0.0,
        0.0,
        0.0,
        1.0,
        0.0,
        0.0,
        -1.0,
        0.0,
        0.0,
        0.0,
        0.0,
        0.0,
        1.0
      ],
      "name": "Zombiex.Fbx"
    },
    {
      "children": [
        3,
        5,
        7
      ],
      "name": "RootNode"
    },
    {
      "children": [
        4
      ],
      "name": "RetopoGroup1"
    },
    {
      "mesh": 0,
      "name": "RetopoGroup1_Default_0"
    },
    {
      "children": [
        6
      ],
      "name": "Body"
    },
    {
      "mesh": 1,
      "name": "Body_Default_0"
    },
    {
      "children": [
        8
      ],
      "name": "Sphere"
    },
    {
      "mesh": 2,
      "name": "Sphere_Default_0"
    }
  ],
  "samplers": [
    {
      "magFilter": 9729,
      "minFilter": 9987,
      "wrapS": 10497,
      "wrapT": 10497
    }
  ],
  "scene": 0,
  "scenes": [
    {
      "name": "Sketchfab_Scene",
      "nodes": [
        0
      ]
    }
  ],
  "textures": [
    {
      "sampler": 0,
      "source": 0
    },
    {
      "sampler": 0,
      "source": 1
    },
    {
      "sampler": 0,
      "source": 2
    },
    {
      "sampler": 0,
      "source": 3
    }
  ]
}
